HIERARCHY
ROOT hip
{
	OFFSET 0.000000 0.000000 0.000000 
	CHANNELS 6 Xposition Yposition Zposition Xrotation Zrotation Yrotation
	JOINT abdomen
	{
		OFFSET 0.000000 3.402643 0.000000 
		CHANNELS 3 Xrotation Zrotation Yrotation
		JOINT chest
		{
			OFFSET 0.000000 8.438565 -0.680529 
			CHANNELS 3 Xrotation Zrotation Yrotation
			JOINT neck
			{
				OFFSET 0.000000 10.207942 -0.272212 
				CHANNELS 3 Xrotation Zrotation Yrotation
				JOINT head
				{
					OFFSET 0.000000 3.130431 0.000000 
					CHANNELS 3 Xrotation Zrotation Yrotation
					End Site
					{
						OFFSET 0.000000 3.130435 0.000000 
					}
				}
			}
			JOINT lCollar
			{
				OFFSET 3.470700 6.669187 -0.816635 
				CHANNELS 3 Yrotation Zrotation Xrotation
				JOINT lShldr
				{
					OFFSET 3.198488 0.000000 0.000000 
					CHANNELS 3 Zrotation Yrotation Xrotation
					JOINT lForeArm
					{
						OFFSET 10.139888 0.000000 0.000000 
						CHANNELS 3 Yrotation Zrotation Xrotation
						JOINT lHand
						{
							OFFSET 8.370511 0.000000 0.000000 
							CHANNELS 3 Zrotation Yrotation Xrotation
							End Site
							{
								OFFSET 4.083176 0.000000 0.000000 
							}
						}
					}
				}
			}
			JOINT rCollar
			{
				OFFSET -3.470700 6.669187 -0.816635 
				CHANNELS 3 Yrotation Zrotation Xrotation
				JOINT rShldr
				{
					OFFSET -3.198488 0.000000 0.000000 
					CHANNELS 3 Zrotation Yrotation Xrotation
					JOINT rForeArm
					{
						OFFSET -10.139888 0.000000 0.000000 
						CHANNELS 3 Yrotation Zrotation Xrotation
						JOINT rHand
						{
							OFFSET -8.370511 0.000000 0.000000 
							CHANNELS 3 Zrotation Yrotation Xrotation
							End Site
							{
								OFFSET -4.083176 0.000000 0.000000 
							}
						}
					}
				}
			}
		}
	}
	JOINT lThigh
	{
		OFFSET 5.308129 -1.633274 1.361059 
		CHANNELS 3 Xrotation Zrotation Yrotation
		JOINT lShin
		{
			OFFSET -2.041588 -20.007561 0.000000 
			CHANNELS 3 Xrotation Zrotation Yrotation
			JOINT lFoot
			{
				OFFSET 0.000000 -19.190928 -1.224953 
				CHANNELS 3 Xrotation Yrotation Zrotation
				End Site
				{
					OFFSET 0.000000 -2.449906 4.627600 
				}
			}
		}
	}
	JOINT rThigh
	{
		OFFSET -5.308129 -1.633274 1.361059 
		CHANNELS 3 Xrotation Zrotation Yrotation
		JOINT rShin
		{
			OFFSET 2.041588 -20.007561 0.000000 
			CHANNELS 3 Xrotation Zrotation Yrotation
			JOINT rFoot
			{
				OFFSET 0.000000 -19.190928 -1.224953 
				CHANNELS 3 Xrotation Yrotation Zrotation
				End Site
				{
					OFFSET 0.000000 -2.449906 4.627600 
				}
			}
		}
	}
}
MOTION
Frames: 11
Frame Time: 0.033333
-90.147095 26.403177 49.812138 2.697335 29.798803 93.900620 0.000000 0.000000 0.000000 29.177847 -1.572166 -0.644825 15.712956 -0.954592 4.092204 -6.174575 1.256882 3.877948 -4.873759 -14.401288 24.990675 -52.229832 12.682849 22.408571 -64.674400 -6.937391 54.930202 50.549969 19.335072 3.867005 4.778956 14.421188 24.988091 48.376083 -19.249884 31.060619 68.719788 4.979337 46.639797 -39.603283 -14.166943 0.239352 -52.728733 21.189396 -2.506482 100.861702 8.356780 1.490088 -17.044250 2.128191 -14.325347 -55.148769 -19.207064 3.645449 98.328667 -7.997988 0.979686 -13.472032 -1.446317 12.014293 
-90.195328 26.393044 49.811871 2.755325 29.509146 94.012665 0.000000 0.000000 0.000000 28.486795 -1.523306 -0.752466 15.196640 -0.984048 3.896914 -6.501752 1.227848 3.741258 -4.969959 -14.541681 24.996944 -52.600407 13.863943 20.265921 -65.400246 -5.568269 56.171944 47.488373 17.335546 2.479877 4.393992 14.839366 24.995481 47.858353 -19.822783 29.474022 69.845695 4.089683 44.120529 -37.452847 -12.092452 -0.684969 -53.173717 21.334204 -2.312991 100.768951 8.246001 1.572069 -16.779280 2.052876 -14.027286 -55.482071 -19.109858 3.783432 98.223152 -8.006901 0.908522 -13.329641 -1.435747 12.157743 
-90.223541 26.399807 49.807907 2.724264 29.531536 94.220901 0.000000 0.000000 0.000000 28.141603 -1.298722 -0.732676 14.844829 -1.042754 3.691860 -7.011658 1.335605 3.350747 -4.987860 -14.454772 24.997698 -53.042065 14.101476 17.813021 -66.437775 -4.147164 55.808430 43.809921 15.390269 1.171998 4.049941 14.511814 24.991817 48.605652 -19.573513 27.097744 70.291534 3.225814 43.313034 -36.221367 -11.990427 -0.813414 -53.327305 21.434622 -2.264756 100.702950 8.181625 1.356694 -16.659931 1.958825 -13.656549 -55.358543 -19.237688 3.634973 98.226715 -7.958518 0.848288 -13.363071 -1.397647 12.156245 
-90.257957 26.397284 49.819008 2.970416 29.974682 94.531364 0.000000 0.000000 0.000000 28.179165 -1.230376 -0.703382 14.793006 -1.169766 3.438178 -7.306421 1.267782 3.008588 -4.920983 -14.815312 24.994507 -52.767960 13.686462 15.508376 -67.706215 -3.430719 52.646412 42.568485 13.932954 0.472109 3.722780 14.543732 24.996862 48.907547 -19.123169 24.351494 71.707008 2.221360 40.633198 -35.276516 -12.281601 -0.799714 -52.916027 21.453758 -2.060990 100.626564 8.132277 0.882608 -16.667427 1.917982 -13.348021 -54.930653 -19.462643 3.562336 98.325890 -8.026880 1.033002 -13.488258 -1.397400 12.050774 
-90.274261 26.364044 49.806492 2.999693 30.181568 94.679665 0.000000 0.000000 0.000000 28.038670 -1.054627 -0.615490 14.620725 -1.130843 3.379404 -7.188955 1.150926 2.842400 -4.820473 -14.588811 24.992180 -52.730507 12.556565 13.633668 -68.940506 -2.752946 48.318104 40.987865 13.406792 0.116512 3.460485 14.676970 24.987701 49.090939 -18.344551 21.604694 73.629105 1.165577 37.733829 -34.344891 -12.930439 -0.685671 -52.887836 21.561472 -1.930741 100.726006 8.112648 0.397855 -16.714506 1.886295 -12.969191 -54.787548 -19.636822 3.483132 98.392014 -7.997422 1.376554 -13.567967 -1.397012 11.911405 
-90.277489 26.325893 49.810040 2.996100 30.481897 94.650963 0.000000 0.000000 0.000000 28.026318 -1.025353 -0.488378 14.617990 -1.023649 3.340357 -7.461197 0.985132 2.822688 -4.685055 -14.484610 24.994125 -52.395897 11.123241 11.415689 -70.701630 -1.835264 44.619770 39.745876 14.093327 0.225315 3.228025 15.165198 24.989422 48.767357 -17.010628 18.948278 75.771576 0.139296 35.658752 -34.486912 -14.346213 -0.250055 -52.721668 21.776409 -1.760811 100.840431 8.074554 0.036524 -16.768534 1.833135 -12.580273 -54.603474 -19.647045 3.455021 98.471169 -7.978045 1.373580 -13.491676 -1.406644 11.827853 
-90.275642 26.284197 49.820560 3.026597 30.511620 94.650002 0.000000 0.000000 0.000000 27.851686 -1.074173 -0.527617 14.524317 -0.955406 3.340193 -7.517776 0.985030 2.940026 -4.726047 -14.440399 24.997580 -52.292908 9.538377 9.003437 -72.908768 -0.927772 40.548164 39.913200 14.805393 0.503350 3.116287 15.220945 24.991236 48.801708 -14.991551 16.099686 78.064880 -0.845610 33.963661 -33.628078 -14.670835 -0.235913 -52.777756 21.941328 -1.717566 100.961929 8.054127 -0.389569 -16.905529 1.806520 -12.410947 -54.730141 -19.744715 3.438729 98.554657 -7.920127 1.539245 -13.483495 -1.395469 11.658775 
-90.283180 26.262640 49.819832 2.740631 30.477468 94.539352 0.000000 0.000000 0.000000 27.691628 -0.849588 -0.410256 14.446320 -0.770120 3.408420 -7.446306 0.838694 2.998440 -4.751092 -13.890244 24.998732 -52.636665 7.322439 6.574568 -74.946747 -0.067947 38.964085 40.464485 16.060129 1.015272 3.180165 15.314325 24.997078 48.717896 -12.666326 13.474431 80.366478 -1.690280 33.230095 -31.466610 -13.819966 -0.710137 -53.013687 22.215374 -1.815845 101.047386 8.092902 -0.700249 -16.946659 1.795119 -12.230536 -54.690598 -19.656500 3.297085 98.598991 -7.851066 1.966628 -13.593058 -1.382090 11.570530 
-90.284286 26.261765 49.823269 2.106205 30.001650 94.251854 0.000000 0.000000 0.000000 27.199362 -0.439448 -0.273504 14.226845 -0.506867 3.496216 -7.564008 0.624094 3.086180 -4.820155 -13.258431 24.857132 -53.064480 5.088260 4.437050 -77.081131 0.903244 40.073734 39.063866 16.733650 1.079946 3.332691 15.479970 24.942007 48.397923 -10.490630 11.542752 83.056587 -2.763450 35.672741 -31.457685 -16.309057 -0.023152 -53.802513 22.692938 -2.124044 101.188766 8.151958 -1.079682 -17.072002 1.779267 -11.999468 -54.935501 -19.393059 2.955020 98.709137 -7.646400 1.788219 -13.805604 -1.387288 11.551724 
-90.276917 26.231728 49.836842 2.576764 30.551939 94.498833 0.000000 0.000000 0.000000 27.552273 -0.673819 -0.293063 14.563060 -0.779876 3.398654 -7.639542 0.936371 2.812922 -4.753122 -13.392255 24.999437 -52.596977 2.317799 2.951235 -79.308243 1.693652 41.440273 40.174877 16.801115 1.249575 3.300487 15.145673 24.993580 48.095440 -7.885902 9.858576 85.274216 -3.582189 38.694069 -31.364998 -15.975917 -0.127172 -53.149364 22.732567 -1.778690 101.183990 8.092961 -1.492506 -17.113836 1.725353 -11.765233 -54.517498 -19.549646 2.792683 99.305679 -7.802532 -0.804675 -13.789495 -1.448617 11.814407 
-90.284904 26.211351 49.817234 3.037713 31.001751 94.757950 0.000000 0.000000 0.000000 27.883900 -0.810541 -0.214960 14.916981 -0.896830 3.428078 -7.690428 0.926693 2.715278 -4.795025 -13.581785 24.999477 -51.985031 -0.444489 2.454235 -81.211891 2.522888 44.546608 39.532421 16.675142 1.122533 3.390129 14.709895 24.994930 47.684711 -4.585359 8.656371 87.102440 -4.127428 40.968296 -30.673256 -16.536459 -0.058866 -52.630318 22.653660 -1.383624 101.098969 7.956398 -1.220784 -16.860350 1.712880 -11.644200 -54.246944 -19.902065 2.947871 99.369400 -7.899803 -0.231188 -13.894732 -1.437559 11.615333 
